<?xml version="1.0" standalone="no"?>
<!DOCTYPE svg PUBLIC "-//W3C//DTD SVG 20010904//EN"
 "http://www.w3.org/TR/2001/REC-SVG-20010904/DTD/svg10.dtd">
<svg version="1.0" xmlns="http://www.w3.org/2000/svg"
 width="192.000000pt" height="192.000000pt" viewBox="0 0 192.000000 192.000000"
 preserveAspectRatio="xMidYMid meet">

<g transform="translate(0.000000,192.000000) scale(0.100000,-0.100000)"
fill="#000000" stroke="none">
<path d="M886 1088 c-55 -161 -101 -298 -104 -305 -4 -13 59 -35 69 -24 4 3
52 139 107 303 101 296 101 296 77 302 -13 3 -29 8 -37 11 -10 4 -39 -69 -112
-287z"/>
<path d="M567 1165 l-88 -104 88 -106 c48 -58 90 -105 93 -105 3 1 17 11 32
23 l27 22 -69 83 -69 83 69 82 70 82 -28 22 c-15 12 -29 22 -32 23 -3 0 -45
-47 -93 -105z"/>
<path d="M1148 1247 l-28 -22 71 -83 70 -82 -71 -82 -71 -82 28 -23 c15 -12
30 -22 33 -23 3 0 45 47 93 105 l88 105 -87 105 c-49 58 -91 105 -94 105 -3
-1 -17 -11 -32 -23z"/>
</g>
</svg>
