<?xml version="1.0" standalone="no"?>
<!DOCTYPE svg PUBLIC "-//W3C//DTD SVG 20010904//EN"
 "http://www.w3.org/TR/2001/REC-SVG-20010904/DTD/svg10.dtd">
<svg version="1.0" xmlns="http://www.w3.org/2000/svg"
 width="343.000000pt" height="343.000000pt" viewBox="0 0 343.000000 343.000000"
 preserveAspectRatio="xMidYMid meet">
<metadata>
Created by potrace 1.14, written by Peter Selinger 2001-2017
</metadata>
<g transform="translate(0.000000,343.000000) scale(0.100000,-0.100000)"
fill="#000000" stroke="none">
<path d="M1423 2749 c-13 -5 -23 -6 -23 -3 0 3 -7 -2 -15 -10 -9 -9 -22 -19
-29 -23 -20 -13 -86 -113 -86 -133 0 -18 -62 -90 -78 -90 -11 0 -32 -47 -35
-78 0 -11 -4 -19 -8 -16 -11 6 -101 -85 -94 -96 3 -6 1 -10 -6 -10 -9 0 -10
-17 -4 -67 11 -107 11 -135 -1 -183 -6 -25 -10 -53 -8 -62 1 -10 -1 -18 -5
-18 -11 0 4 -83 25 -138 13 -35 15 -62 10 -128 -8 -102 13 -162 61 -177 3 -1
24 -19 44 -39 21 -21 47 -38 57 -38 20 0 42 -37 42 -70 0 -10 5 -22 10 -25 6
-3 10 -14 10 -24 0 -10 7 -32 15 -47 15 -29 21 -63 8 -51 -3 4 -11 3 -17 -2
-6 -5 -29 -11 -51 -13 -22 -1 -46 -10 -52 -19 -7 -10 -15 -62 -17 -120 -3 -57
-7 -113 -10 -124 -2 -11 -5 -23 -5 -26 -2 -15 -211 -33 -211 -18 0 15 -61 143
-74 153 -7 6 -23 28 -37 48 -13 21 -27 38 -32 38 -4 0 -20 14 -35 31 -15 16
-34 31 -42 32 -8 2 -21 6 -27 10 -14 9 -40 15 -86 22 -19 3 -26 1 -21 -8 5 -9
4 -9 -6 0 -8 7 -20 9 -29 4 -9 -4 -23 -7 -31 -6 -8 0 -26 -10 -40 -22 -14 -13
-30 -21 -37 -19 -6 3 -14 0 -17 -7 -2 -7 -5 -4 -5 6 -1 9 -5 17 -11 17 -5 0
-10 7 -10 15 0 8 -4 15 -10 15 -5 0 -10 6 -10 13 0 8 -9 24 -20 37 -11 12 -17
27 -14 31 3 5 1 9 -4 9 -5 0 -12 9 -15 19 -6 25 -59 60 -65 43 -2 -7 -7 -10
-12 -7 -10 6 -8 -28 3 -36 11 -8 15 -199 4 -231 -7 -23 -12 -26 -27 -18 -13 7
-20 6 -23 -3 -4 -9 -6 -9 -6 0 -1 7 -22 27 -48 45 -27 17 -53 37 -60 43 -30
25 -39 31 -56 38 -9 3 -17 11 -17 16 0 5 -7 12 -16 15 -13 5 -15 -1 -13 -32 2
-20 6 -44 11 -52 23 -48 46 -130 38 -135 -6 -4 -8 -10 -5 -15 3 -4 -6 -11 -20
-14 l-25 -6 0 -355 c0 -230 4 -355 10 -355 6 0 10 5 10 10 0 14 47 12 57 -2
10 -17 10 -39 0 -60 -5 -12 -4 -18 4 -18 7 0 5 -8 -6 -20 -10 -11 -14 -20 -9
-20 5 0 1 -5 -9 -11 -9 -5 -17 -14 -17 -20 0 -5 -9 -19 -20 -31 -14 -15 -20
-36 -20 -65 l0 -43 1715 0 1715 0 0 365 0 364 -25 26 c-14 14 -30 25 -35 25
-6 0 -10 4 -10 8 0 5 -16 17 -35 28 -19 10 -35 22 -35 26 0 3 -9 9 -19 13 -21
6 -83 60 -81 70 1 10 -31 66 -53 92 -46 55 -115 123 -125 123 -6 0 -12 3 -14
8 -7 15 -75 38 -120 41 -31 2 -56 -3 -75 -16 -35 -22 -73 -64 -73 -80 0 -7 -8
-17 -17 -22 -10 -6 -14 -11 -10 -11 12 0 -20 -30 -32 -30 -6 0 -11 -4 -11 -10
0 -5 -16 -27 -35 -47 -19 -20 -35 -41 -35 -45 0 -5 -14 -24 -31 -43 -30 -33
-31 -33 -69 -20 -21 7 -40 11 -43 9 -3 -3 -25 0 -48 6 -66 18 -123 28 -167 29
-15 1 -21 5 -17 14 4 6 -1 3 -10 -8 -15 -19 -16 -13 -11 91 6 129 -5 179 -43
198 -14 7 -34 11 -43 9 -10 -3 -18 1 -18 9 0 10 -2 10 -8 1 -6 -9 -12 -8 -24
6 -13 16 -14 23 -4 43 6 12 20 44 30 71 10 26 23 47 28 47 6 0 9 2 6 5 -6 7
49 65 62 65 5 0 10 3 12 8 2 4 16 17 32 30 16 12 25 22 20 22 -5 0 -3 4 4 9 8
4 16 27 19 51 4 31 3 41 -5 36 -7 -4 -12 -1 -12 9 0 9 -4 13 -10 10 -5 -3 -10
-1 -10 5 0 7 -7 10 -15 6 -8 -3 -15 -2 -16 2 -5 43 -5 52 1 52 4 0 11 15 15
33 4 17 9 39 11 47 2 8 5 27 7 42 1 16 5 28 8 28 11 0 9 254 -3 298 -6 24 -18
48 -27 55 -20 14 -20 44 -2 105 11 39 8 168 -4 180 -3 3 -5 -2 -5 -11 0 -10
-4 -17 -10 -17 -5 0 -10 4 -10 9 0 5 -16 15 -35 22 -19 7 -35 16 -35 20 0 7
-34 22 -52 24 -4 0 -13 7 -20 16 -24 29 -62 49 -95 49 -21 0 -42 9 -60 26 -28
26 -71 49 -85 46 -5 -1 -8 2 -8 7 0 9 -37 4 -55 -9 -5 -3 -26 -7 -45 -8 -28
-2 -42 5 -72 33 -21 20 -38 33 -38 29 0 -5 -5 -3 -11 3 -6 6 -18 9 -25 6 -8
-3 -14 0 -14 5 0 6 -8 10 -17 10 -10 0 -29 2 -43 4 -14 3 -35 2 -47 -3z"/>
</g>
</svg>
